<?xml version="1.0" standalone="no"?>
<svg xmlns="http://www.w3.org/2000/svg" viewBox="0 0 37.51 43.312" width="37.51" height="43.312"><polygon fill="none" stroke="#7fffd4" stroke-width="3" points="36.01,11.578 36.01,31.733999999999998 18.755,41.812 1.5,31.733999999999998 1.5,11.578 18.755,1.5"></polygon><path fill="#ffffff" fill-rule="nonzero" d="M8.09 18.31L4.87 10.10L3.50 10.10L3.50 17.86L0 18.14L0 0.14L4.27 0Q7.37 0 9.12 1.24Q10.87 2.47 10.87 5.02L10.87 5.02Q10.87 6.70 10.21 7.78Q9.55 8.86 8.30 9.58L8.30 9.58L9.91 13.49L11.54 17.38L8.09 18.31ZM3.50 7.51L4.70 7.51Q5.95 7.51 6.66 7.00Q7.37 6.48 7.37 5.04L7.37 5.04Q7.37 2.81 5.16 2.81L5.16 2.81L3.50 2.81L3.50 7.51Z" transform="translate(12.983, 12.5)"></path></svg>